<svg width="43" height="42" viewBox="0 0 43 42" fill="none" xmlns="http://www.w3.org/2000/svg">
<path d="M13.084 33.4998C10.7923 33.4998 8.93815 35.3748 8.93815 37.6665C8.93815 39.9582 10.7923 41.8332 13.084 41.8332C15.3757 41.8332 17.2507 39.9582 17.2507 37.6665C17.2507 35.3748 15.3757 33.4998 13.084 33.4998ZM0.583984 2.24984C0.583984 3.39567 1.52148 4.33317 2.66732 4.33317H4.75065L12.2507 20.1457L9.43815 25.229C7.91732 28.0207 9.91732 31.4165 13.084 31.4165H36.0006C37.1465 31.4165 38.084 30.479 38.084 29.3332C38.084 28.1873 37.1465 27.2498 36.0006 27.2498H13.084L15.3757 23.0832H30.8965C32.459 23.0832 33.834 22.229 34.5423 20.9373L42.0006 7.41651C42.1762 7.10073 42.2663 6.74457 42.262 6.38329C42.2576 6.022 42.159 5.66811 41.9759 5.35664C41.7928 5.04516 41.5316 4.78688 41.218 4.60738C40.9045 4.42787 40.5495 4.33335 40.1881 4.33317H9.35482L7.95898 1.35401C7.79155 0.998394 7.52627 0.697841 7.19421 0.487534C6.86214 0.277228 6.47704 0.165873 6.08398 0.166507H2.66732C1.52148 0.166507 0.583984 1.10401 0.583984 2.24984ZM33.9173 33.4998C31.6257 33.4998 29.7715 35.3748 29.7715 37.6665C29.7715 39.9582 31.6257 41.8332 33.9173 41.8332C36.209 41.8332 38.084 39.9582 38.084 37.6665C38.084 35.3748 36.209 33.4998 33.9173 33.4998Z" fill="#FBF4F8"/>
</svg>
