<svg width="50" height="51" viewBox="0 0 50 51" fill="none" xmlns="http://www.w3.org/2000/svg">
<path d="M17.1611 1.86867C12.0018 3.6222 7.55244 6.95047 4.46656 11.3646C1.38068 15.7787 -0.179092 21.0461 0.0163637 26.3929C0.211819 31.7397 2.15219 36.8842 5.55248 41.0708C8.95276 45.2573 13.6337 48.2652 18.9078 49.6526C23.1836 50.7336 27.6634 50.7811 31.9621 49.791C35.8563 48.934 39.4566 47.1009 42.4104 44.4711C45.4847 41.6505 47.7162 38.0623 48.8649 34.0922C50.1131 29.7749 50.3353 25.2347 49.5144 20.8202H25.5035V30.5786H39.409C39.1311 32.135 38.5356 33.6204 37.658 34.946C36.7805 36.2717 35.639 37.4102 34.3019 38.2936C32.6041 39.3944 30.6899 40.1349 28.6824 40.4674C26.6692 40.8342 24.6042 40.8342 22.5909 40.4674C20.5503 40.0545 18.6199 39.2293 16.923 38.0446C14.1966 36.1537 12.1494 33.4674 11.0736 30.3691C9.97994 27.2127 9.97994 23.7909 11.0736 20.6344C11.8394 18.422 13.1053 16.4075 14.7769 14.7415C16.6898 12.7999 19.1117 11.412 21.7767 10.7301C24.4417 10.0483 27.2469 10.0988 29.8846 10.8761C31.9452 11.4955 33.8295 12.5783 35.3871 14.038C36.955 12.5097 38.5202 10.9775 40.0827 9.44138C40.8896 8.61533 41.769 7.82882 42.5637 6.98301C40.1857 4.81522 37.3947 3.1283 34.3503 2.01885C28.8063 0.0465895 22.7401 -0.00641323 17.1611 1.86867Z" fill="#EB9ECA"/>
</svg>
